<svg version="1.1" id="Layer_1" xmlns="http://www.w3.org/2000/svg" xmlns:xlink="http://www.w3.org/1999/xlink" x="0px" y="0px"
	 width="100%" viewBox="0 0 1024 544" enable-background="new 0 0 1024 544" xml:space="preserve">
<path fill="#000000" opacity="1.000000" stroke="none" 
	d="
M540.398682,459.737305 
	C544.887878,476.177063 546.847900,492.682068 549.385315,509.504120 
	C552.903015,508.202759 555.757507,506.895081 558.747009,506.087219 
	C568.339661,503.495056 578.096497,507.485077 581.300598,515.125916 
	C583.450867,520.253601 581.608093,523.269165 575.972534,523.348572 
	C566.809143,523.477783 557.640503,523.261414 548.478333,523.427551 
	C543.863770,523.511292 541.913391,521.609314 541.596008,516.998901 
	C539.560425,487.432831 533.121704,458.750275 523.732605,430.704620 
	C520.736877,421.756165 517.733765,412.786194 513.176392,403.589020 
	C509.003021,410.802307 506.917084,418.143097 504.394348,425.264282 
	C495.134247,451.403717 488.873138,478.260376 485.688232,505.814819 
	C485.229889,509.780212 485.179016,513.791687 484.901215,517.779175 
	C484.623535,521.765015 482.748718,523.658020 478.461517,523.541809 
	C469.302582,523.293457 460.133087,523.461426 450.968719,523.375305 
	C444.760956,523.316956 442.750977,519.962341 445.362427,514.214050 
	C448.000275,508.407684 455.570282,504.572662 463.007324,505.315613 
	C467.868134,505.801208 472.404724,507.305054 476.957031,510.375793 
	C478.188965,501.908722 479.263153,493.927399 480.523071,485.975555 
	C484.786285,459.068420 492.100372,432.975159 502.593170,407.865784 
	C507.038452,397.228210 509.382965,386.668793 509.106171,375.028778 
	C508.512634,350.069885 508.924225,325.087067 508.924225,298.825928 
	C503.235291,307.411560 498.181641,314.950684 492.208527,321.839752 
	C477.691162,338.583252 460.744171,351.986267 440.197540,360.572723 
	C437.419281,361.733734 435.759613,363.364502 434.624298,366.354156 
	C430.218414,377.956390 412.085083,381.407135 403.494476,372.462006 
	C399.839722,368.656342 398.560638,364.176727 400.447510,359.129974 
	C402.888458,352.601166 408.334045,349.786133 414.676483,348.807495 
	C420.591064,347.894867 426.425873,348.625580 430.965790,353.156769 
	C433.581696,355.767670 435.939819,354.082520 438.244507,353.015106 
	C459.689392,343.082733 477.487854,328.629395 491.536438,309.616486 
	C496.746063,302.565887 502.183716,295.630493 505.716278,286.738068 
	C496.282501,284.769775 487.556580,282.211975 479.534485,277.731781 
	C478.313446,277.049866 477.292206,277.708099 476.413239,278.575989 
	C471.374176,283.551605 465.998779,284.026428 460.298737,279.749084 
	C459.291718,278.993408 458.344727,278.634460 457.089203,279.196472 
	C449.501068,282.593018 443.883820,279.979736 439.573669,273.051208 
	C433.562927,275.349823 428.798370,274.171722 425.995636,267.948975 
	C425.334869,266.481873 423.778595,266.664062 422.497192,266.468140 
	C417.404266,265.689362 413.828278,262.956360 412.452423,257.982025 
	C411.704956,255.279602 410.394104,254.416229 407.648224,254.086014 
	C401.612518,253.360168 398.461090,250.067337 397.698151,244.038284 
	C397.440582,242.003235 396.122803,240.994064 395.191528,239.508194 
	C391.589630,233.761444 386.131226,229.051117 383.258911,223.372787 
	C380.319672,217.562134 378.898041,210.122742 378.196198,203.555054 
	C377.649536,198.439087 377.688141,193.480637 376.017487,188.340927 
	C374.798248,184.590012 375.052429,180.898346 371.779816,177.425003 
	C367.171082,172.533569 369.279053,163.347061 375.184662,159.426514 
	C378.759369,157.053391 380.461639,154.899490 378.303070,150.526978 
	C376.746857,147.374588 377.454926,143.872345 379.701691,141.101852 
	C381.403992,139.002762 381.346191,137.203964 380.487579,134.733734 
	C378.442322,128.849823 380.444824,123.728134 385.967926,120.852036 
	C388.673645,119.443077 389.307098,117.889450 388.954285,114.947456 
	C387.831451,105.583984 391.598267,100.172882 400.754669,98.401222 
	C405.753754,97.433968 406.777435,94.283737 406.654236,90.162605 
	C406.318787,78.941872 409.681213,75.412758 421.113251,75.205940 
	C421.745850,75.194504 422.765381,75.179832 422.946472,74.827866 
	C425.430328,70.001579 431.679077,69.001945 433.785980,63.536213 
	C435.847504,58.188168 440.950317,56.028259 446.911469,56.604309 
	C448.544556,56.762119 450.029846,57.921295 451.745605,57.318714 
	C454.697845,49.168839 457.318481,47.938072 465.764160,51.253803 
	C468.049164,52.150894 469.343323,51.882092 470.874207,50.031761 
	C475.108246,44.914326 480.495514,43.111553 486.957153,45.113415 
	C488.617523,45.627796 489.948608,45.832039 491.474762,44.376511 
	C501.254913,35.048882 508.345734,35.311409 517.230042,45.327755 
	C521.197571,43.594524 525.393616,42.973961 529.718933,44.312160 
	C530.751404,44.631607 531.684448,44.323978 532.583008,43.826263 
	C541.441101,38.919563 547.517639,42.472569 552.042358,48.621937 
	C556.430115,45.514576 559.418091,45.733368 563.076355,50.018593 
	C564.711365,51.933846 566.092285,52.431767 568.591675,51.967934 
	C574.408081,50.888565 577.875977,53.110580 580.846375,58.264263 
	C583.473572,62.822357 586.220337,67.003204 592.995178,66.225151 
	C598.302368,65.615654 602.720825,68.514420 604.729614,73.799026 
	C605.647522,76.213882 606.722656,77.627846 609.486328,78.031906 
	C614.180847,78.718269 617.381042,81.549675 618.508240,86.239624 
	C619.147461,88.899200 620.731689,89.892204 623.232605,90.597618 
	C631.044434,92.801102 634.905823,98.764809 633.742432,106.858376 
	C633.411316,109.162140 633.728088,110.534050 635.740723,111.848671 
	C638.896606,113.910072 640.509094,117.247955 640.219543,120.848282 
	C639.866699,125.234863 640.477905,129.367584 641.785156,133.561157 
	C648.626404,135.540268 649.222717,136.504288 647.902832,144.022934 
	C647.728516,145.016174 647.305725,145.990982 647.954773,146.900009 
	C651.454834,151.801941 650.879028,156.894562 648.313293,162.240952 
	C654.012085,165.766449 657.049194,170.588058 656.574768,177.278503 
	C656.355957,180.363770 655.888062,183.748703 653.487305,185.478348 
	C649.252319,188.529587 647.962830,192.388840 647.772400,197.270004 
	C647.637939,200.717133 645.104797,203.214828 642.670959,205.545074 
	C643.980835,206.664948 644.508301,205.740005 644.935669,205.185440 
	C646.572693,203.061386 648.468445,201.911514 650.830688,203.924225 
	C653.346802,206.068100 651.517700,208.186813 650.349731,210.111038 
	C648.984924,212.359512 646.752319,213.505157 644.270752,214.188370 
	C642.724426,214.614090 640.864075,214.307663 639.754822,216.259827 
	C640.402466,218.313629 641.234009,220.475616 641.759033,222.709656 
	C643.027344,228.106689 640.623840,235.121384 635.473633,236.565521 
	C628.641907,238.481155 624.166626,243.750153 618.002625,246.535065 
	C619.555237,247.391708 620.935242,246.839325 622.206299,246.094421 
	C624.270508,244.884659 626.080627,244.958221 627.327759,247.120468 
	C628.712463,249.521210 627.385620,251.215637 625.519531,252.637009 
	C622.675171,254.803436 619.199219,254.322647 616.083191,254.583801 
	C612.718689,264.145386 610.547791,265.330811 600.883484,266.120758 
	C597.011108,266.437256 592.686401,268.592957 590.370239,271.684143 
	C584.881348,279.009705 583.952454,279.723602 574.535339,276.985931 
	C572.036011,279.738434 569.320557,282.477051 565.292969,283.104065 
	C561.127686,283.752533 556.922363,283.252655 554.233826,279.948395 
	C550.877136,275.822876 547.947998,276.580841 544.067993,278.945007 
	C537.024963,283.236389 528.911926,284.690216 520.750916,286.511292 
	C521.640320,291.453522 524.655823,294.902100 526.993408,298.626648 
	C541.972473,322.493469 561.882690,340.875000 587.550781,352.851013 
	C591.012024,354.465912 593.508484,354.741425 596.898621,351.948700 
	C604.245361,345.896667 617.447815,347.786011 623.682922,355.083801 
	C629.222229,361.567200 627.027710,371.008301 618.985046,375.294922 
	C608.788818,380.729340 595.836914,376.243622 591.338989,365.586792 
	C590.495483,363.588318 589.353210,362.224854 587.406494,361.385803 
	C558.465637,348.912292 536.281616,328.696899 519.605103,302.175446 
	C519.340271,301.754303 519.037476,301.343811 518.685791,300.995636 
	C518.480591,300.792572 518.142883,300.723358 517.770325,300.549957 
	C516.708984,302.227264 517.184937,304.086273 517.182068,305.833099 
	C517.138000,332.662018 517.146484,359.491058 517.125244,386.320038 
	C517.122986,389.164612 517.281799,391.914062 518.449951,394.617798 
	C527.509949,415.587311 534.982666,437.100067 540.398682,459.737305 
M481.604462,188.520096 
	C478.689270,187.735397 470.365204,192.285294 469.181549,195.575302 
	C468.301422,198.021606 467.188660,200.194321 464.918121,201.506027 
	C462.664032,202.808243 462.290222,204.405685 462.932556,206.919220 
	C464.153412,211.696548 462.764862,216.080215 458.762177,218.899689 
	C455.272736,221.357697 454.891449,224.411469 455.462433,228.015457 
	C455.878296,230.640060 456.350037,233.268112 457.010376,235.839783 
	C463.846222,262.461090 488.105011,279.761200 516.960022,278.640289 
	C542.482849,277.648865 566.073792,256.829285 570.413086,231.243958 
	C571.311218,225.948273 572.762390,220.300156 567.079346,216.242889 
	C566.135071,215.568710 565.725098,213.975204 565.335144,212.723358 
	C562.983154,205.173843 562.142029,196.881821 554.761353,191.865417 
	C554.255981,191.521927 554.038635,190.762863 553.669983,190.208633 
	C551.058228,186.282410 541.282532,185.397644 538.029358,188.790054 
	C534.628784,192.336197 529.844727,192.895416 525.233337,190.324753 
	C521.354248,188.162323 519.776184,185.167099 522.147095,180.564316 
	C517.697937,180.061325 514.349670,177.953796 511.033112,175.362778 
	C507.971161,178.033005 504.695129,179.801392 500.590485,179.400482 
	C498.731140,179.218872 498.150696,180.828186 497.428162,182.135437 
	C494.090546,188.174377 489.063965,190.402740 481.604462,188.520096 
M425.033752,366.652740 
	C428.495117,361.894257 427.905853,359.310486 422.672791,357.139221 
	C418.301727,355.325653 414.094757,356.185425 410.351776,358.789001 
	C406.425415,361.520142 406.666138,365.546570 410.778381,367.999664 
	C415.500122,370.816376 420.047272,369.746887 425.033752,366.652740 
M618.122131,361.410736 
	C614.068848,356.308777 607.919067,354.714142 602.663086,357.482330 
	C600.522339,358.609833 598.704956,360.157104 598.928955,362.872375 
	C599.216980,366.362671 605.013184,369.806396 610.049500,369.617371 
	C615.506104,369.412628 618.188293,366.994049 618.122131,361.410736 
M420.619141,85.992485 
	C421.058319,84.064262 420.532471,82.615547 418.409119,82.362770 
	C416.340973,82.116554 414.995514,83.396446 413.999756,85.035980 
	C413.247009,86.275436 413.054688,87.713020 414.230255,88.675583 
	C415.896545,90.039940 417.290131,88.397339 418.731995,87.819901 
	C419.316650,87.585777 419.768829,87.020927 420.619141,85.992485 
M532.018677,180.548325 
	C529.795471,177.952881 527.775757,178.924500 525.581421,180.974823 
	C526.866516,183.602020 528.555847,185.487228 531.711914,184.560257 
	C533.728943,183.967834 533.446899,182.471024 532.018677,180.548325 
M625.025635,105.788864 
	C625.426758,106.084557 625.329285,107.706383 625.965332,106.780792 
	C628.107544,103.663307 626.482239,100.380646 622.512817,99.385910 
	C622.335022,101.734253 624.309387,103.210785 625.025635,105.788864 
M381.033051,172.012268 
	C380.179138,170.717117 379.865173,168.850662 377.692657,168.849030 
	C375.721832,170.731003 376.585632,172.541611 378.132385,173.901932 
	C379.607452,175.199219 380.861542,174.630844 381.033051,172.012268 
M649.004517,179.083130 
	C649.802124,176.661896 650.261719,174.318100 647.411377,171.818146 
	C647.181580,175.444580 647.007874,178.186264 646.764221,182.031509 
	C647.959045,180.613464 648.353455,180.145355 649.004517,179.083130 
M553.575623,53.827076 
	C554.496094,55.688339 555.274841,57.689018 557.685608,58.362415 
	C558.215576,54.149857 558.047180,53.951050 553.575623,53.827076 
M631.351562,230.484802 
	C633.193787,229.577972 634.593750,228.401443 634.218323,224.975647 
	C632.718506,227.366760 627.919128,226.126297 631.351562,230.484802 
z"/>
</svg>